<svg width="32" height="32" viewBox="0 0 32 32" fill="none" xmlns="http://www.w3.org/2000/svg">
<path d="M14.6667 21.9999C16.5077 21.9999 18 20.5075 18 18.6666C18 16.8256 16.5077 15.3333 14.6667 15.3333C12.8258 15.3333 11.3334 16.8256 11.3334 18.6666C11.3334 20.5075 12.8258 21.9999 14.6667 21.9999Z" />
<path d="M28.0001 5.33329V3.99996C28.0001 3.26663 27.4001 2.66663 26.6667 2.66663C25.9334 2.66663 25.3334 3.26663 25.3334 3.99996V5.33329H24.0001C23.2667 5.33329 22.6667 5.93329 22.6667 6.66663C22.6667 7.39996 23.2667 7.99996 24.0001 7.99996H25.3334V9.33329C25.3334 10.0666 25.9334 10.6666 26.6667 10.6666C27.4001 10.6666 28.0001 10.0666 28.0001 9.33329V7.99996H29.3334C30.0667 7.99996 30.6667 7.39996 30.6667 6.66663C30.6667 5.93329 30.0667 5.33329 29.3334 5.33329H28.0001Z" />
<path d="M22.6667 10.6666H21.3334C20.6 10.6666 20 10.0666 20 9.33325V5.33325H11.84C11.0934 5.33325 10.3734 5.65325 9.86671 6.19992L8.22671 7.99992H4.00004C2.53337 7.99992 1.33337 9.19992 1.33337 10.6666V26.6666C1.33337 28.1333 2.53337 29.3333 4.00004 29.3333H25.3334C26.8 29.3333 28 28.1333 28 26.6666V13.3333H24C23.2667 13.3333 22.6667 12.7333 22.6667 11.9999V10.6666ZM14.6667 24.6666C11.36 24.6666 8.66671 21.9733 8.66671 18.6666C8.66671 15.3599 11.36 12.6666 14.6667 12.6666C17.9734 12.6666 20.6667 15.3599 20.6667 18.6666C20.6667 21.9733 17.9734 24.6666 14.6667 24.6666Z" />
</svg>
