<svg width="128" height="98" viewBox="0 0 128 98" fill="none" xmlns="http://www.w3.org/2000/svg">
<path fill-rule="evenodd" clip-rule="evenodd" d="M44.5962 77.6641C64.2899 83.0438 83.8118 77.0643 88.1996 64.3085C92.5873 51.5527 80.1794 36.851 60.4856 31.4714C40.7919 26.0917 21.2699 32.0712 16.8822 44.827C15.377 49.2029 15.8483 53.8077 17.9123 58.1866C19.8869 62.376 22.7927 66.0761 24.9476 70.1756L30.3405 80.4348C31.0163 81.7204 32.7939 81.8797 33.6875 80.7346L34.1242 80.175C36.3422 77.3328 40.1739 76.3815 43.6344 77.3923C43.953 77.4854 44.2736 77.576 44.5962 77.6641ZM108.761 53.5794C109.593 50.5762 110.804 47.6745 111.484 44.6329C112.133 41.729 112.185 38.7591 111.554 35.8187C108.413 21.1805 89.5405 12.8168 69.4006 17.1379C49.2607 21.4591 35.4802 36.8287 38.6209 51.467C41.7617 66.1053 60.6343 74.469 80.7742 70.1479C84.4531 69.3585 87.9197 68.2006 91.1098 66.7458C94.552 65.176 98.7078 65.5821 101.36 68.2804L101.524 68.4482C102.604 69.5462 104.467 69.0643 104.878 67.5807L108.761 53.5794Z" fill="#7F00FF"/>
<path fill-rule="evenodd" clip-rule="evenodd" d="M85.8613 68.7827C86.8594 67.4041 87.6487 65.9097 88.1995 64.3084C92.5873 51.5526 80.1793 36.851 60.4855 31.4713C55.6226 30.143 50.7702 29.5072 46.1535 29.495C39.9922 35.8816 36.9705 43.7753 38.6209 51.467C41.7616 66.1052 60.6343 74.469 80.7742 70.1478C82.5199 69.7732 84.2179 69.3157 85.8613 68.7827Z" fill="#4C0099"/>
<path d="M63.9939 39.4972V58.5159C63.9939 61.3291 64.0336 62.28 63.1607 62.914C62.8036 63.1517 62.1688 63.1121 61.9307 62.9536C60.9785 62.4781 60.8991 61.5668 60.8198 60.4574C60.7404 58.5951 60.1453 56.8121 58.7566 56.1386C57.3283 55.465 55.7412 55.5839 54.7096 56.2574C53.2416 57.248 52.9639 58.714 53.0035 59.9027C53.0432 61.6461 53.9954 63.1913 55.8602 64.1423C58.5185 65.5687 64.9858 65.5687 67.168 64.2611C71.2546 61.8442 71.5324 58.8329 71.5324 54.1178V39.4972C71.5324 36.9217 71.8498 36.1293 72.8417 35.4557C73.0798 35.2576 73.3972 35.0991 73.7543 34.9406C73.913 34.8614 74.032 34.7029 73.9923 34.5048C73.9526 34.267 73.5955 34.2274 73.5955 34.2274H71.9688H63.5574H61.9307C61.9307 34.2274 61.6133 34.267 61.4943 34.5048C61.4546 34.7029 61.6133 34.8614 61.772 34.9406C62.0894 35.0991 62.4465 35.2576 62.6846 35.4557C63.6765 36.1293 63.9939 36.9217 63.9939 39.4972Z" fill="#FAFAFA"/>
</svg>
