<svg width="228" height="160" viewBox="0 0 228 160" fill="none" xmlns="http://www.w3.org/2000/svg">
<path fill-rule="evenodd" clip-rule="evenodd" d="M67.8644 146.011C114.446 158.735 160.621 144.592 171 114.421C181.378 84.2494 152.029 49.4755 105.448 36.751C58.8661 24.0265 12.6908 38.1698 2.31239 68.341C-2.20677 81.4791 0.806717 95.4897 9.4958 108.173C12.1134 111.993 14.8085 115.778 16.9634 119.878L36.1132 156.308C36.789 157.593 38.5666 157.753 39.4602 156.608L48.2232 145.379C50.4411 142.536 54.2777 141.553 57.6674 142.781C60.9628 143.975 64.365 145.055 67.8644 146.011ZM221.34 82.8844C222.173 79.8812 223.285 76.9635 224.315 74.0221C227.39 65.239 228.18 56.0773 226.24 47.0338C218.811 12.4099 174.171 -7.37278 126.534 2.84804C78.8976 13.0689 46.3023 49.4227 53.7312 84.0468C61.16 118.671 105.8 138.453 153.437 128.233C165.28 125.692 176.193 121.535 185.793 116.192C189.098 114.352 193.263 114.796 195.915 117.494L205.832 127.585C206.911 128.684 208.774 128.202 209.186 126.718L221.34 82.8844Z" fill="#7F00FF"/>
<path fill-rule="evenodd" clip-rule="evenodd" d="M165.469 125.004C167.83 121.743 169.697 118.208 171 114.421C181.378 84.2493 152.029 49.4754 105.448 36.7509C93.9456 33.6089 82.4681 32.1051 71.5483 32.0763C56.9748 47.1825 49.8277 65.8534 53.7312 84.0467C61.16 118.671 105.8 138.453 153.437 128.232C157.566 127.347 161.582 126.264 165.469 125.004Z" fill="#4C0099"/>
<path d="M23.2404 65.9111V93.5122C23.2404 97.5949 23.2972 98.975 22.0485 99.895C21.5378 100.24 20.6297 100.183 20.2892 99.9525C18.927 99.2625 18.8135 97.9399 18.7 96.3299C18.5865 93.6272 17.7352 91.0396 15.7488 90.0621C13.7056 89.0846 11.4354 89.2571 9.95979 90.2346C7.85986 91.6722 7.46258 93.7998 7.51933 95.5248C7.57609 98.0549 8.9382 100.298 11.6057 101.678C15.4082 103.748 24.6593 103.748 27.7808 101.85C33.6265 98.3424 34.0238 93.9723 34.0238 87.1295V65.9111C34.0238 62.1735 34.4778 61.0235 35.8967 60.0459C36.2372 59.7584 36.6913 59.5284 37.2021 59.2984C37.4291 59.1834 37.5993 58.9534 37.5426 58.6659C37.4858 58.3208 36.975 58.2633 36.975 58.2633H34.6481H22.6161H20.2892C20.2892 58.2633 19.8351 58.3208 19.6648 58.6659C19.6081 58.9534 19.8351 59.1834 20.0621 59.2984C20.5162 59.5284 21.027 59.7584 21.3675 60.0459C22.7864 61.0235 23.2404 62.1735 23.2404 65.9111Z" fill="white"/>
<path d="M65.3396 97.8824C65.4353 95.2948 65.226 97.0199 64.4315 97.5949C64.1477 97.7674 63.4666 97.9974 63.1261 98.0549C62.3883 98.1124 61.991 98.0549 61.4802 97.7099C60.5154 96.9624 60.6289 95.4098 60.6289 93.3397V83.3918C60.6289 79.4817 60.8559 76.6641 58.4722 74.824C55.4642 72.5814 47.9159 72.7539 44.2835 73.904C41.3891 74.824 38.7783 76.0891 37.927 78.9067C37.5297 80.3442 37.8135 81.7243 38.6081 82.6443C39.6297 83.9094 41.2188 84.2544 42.5242 84.0819C44.2835 83.9094 45.6457 82.8743 46.497 81.0342C47.8591 78.3316 47.7456 76.7791 49.2212 76.2041C50.0158 75.859 50.4698 76.0891 50.8103 76.3766C52.1725 77.4691 51.6617 83.5068 51.6049 84.4844C51.0374 84.5994 48.8239 85.0019 48.8239 85.0019C46.3267 85.4619 38.8351 86.957 36.5081 91.3272C35.146 93.7998 35.2595 96.4449 36.0541 98.4574C37.0189 100.815 38.7783 101.965 40.708 102.598C44.5106 103.69 47.5186 102.655 51.8887 99.6075C53.8751 102.885 55.521 103.46 58.1885 103.23C60.6289 103 63.4667 101.103 65.3396 97.8824ZM46.497 89.3146C47.5753 88.337 49.1645 87.4745 51.0941 87.4745C51.3211 87.4745 51.6049 87.762 51.6049 88.222V95.7548C51.6049 95.9848 51.4346 96.3299 50.6401 96.9049C49.9023 97.5374 48.1996 97.9399 47.0078 97.4799C45.7592 97.0199 45.0214 96.0423 44.7376 94.6048C44.4538 92.9372 44.9646 90.8096 46.497 89.3146Z" fill="white"/>
<path d="M65.5316 84.6569V94.8348C64.8593 97.9902 64.948 98.8096 63.5291 99.7872C63.1886 100.017 62.653 100.905 62.1989 101.135C61.8168 101.328 58.1885 103.23 58.1885 103.23C58.1885 103.23 60.5374 102.752 62.5803 102.483C64.6232 102.213 77.45 102.483 77.45 102.483C77.45 102.483 77.9041 102.483 78.0743 102.138C78.1311 101.85 77.9041 101.563 77.6771 101.448C77.223 101.218 76.7122 100.93 76.3717 100.7C74.9528 99.7225 75.0096 98.5724 75.0096 94.8348V86.7845C75.0096 84.7144 74.8393 80.5167 77.1663 78.9642C78.0743 78.3891 80.1175 78.2166 81.0256 78.7917C83.3525 80.3442 83.1255 83.6219 83.1255 86.612V94.8348C83.1255 98.5724 83.1823 99.7225 81.8202 100.7C81.4229 100.93 80.9688 101.218 80.458 101.448C80.231 101.563 80.0608 101.85 80.1175 102.138C80.231 102.483 80.6851 102.483 80.6851 102.483H94.9873C94.9873 102.483 95.4981 102.483 95.6116 102.138C95.6683 101.85 95.4981 101.563 95.271 101.448C94.7602 101.218 94.3062 100.93 93.9089 100.7C92.5468 99.7225 92.6036 98.5724 92.6036 94.8348V86.3245C92.6036 84.3119 92.3198 79.8842 94.6467 78.4466C95.6116 77.8141 97.598 77.8141 98.5628 78.3891C101.003 79.8267 100.663 83.2193 100.663 86.2095V94.8348C100.663 98.5724 100.776 99.7225 99.3574 100.7C99.0168 100.93 98.5061 101.218 98.052 101.448C97.7682 101.563 97.598 101.85 97.6547 102.138C97.7682 102.483 98.279 102.483 98.279 102.483H113.149C113.149 102.483 113.603 102.483 113.716 102.138C113.773 101.85 113.603 101.563 113.376 101.448C112.865 101.218 112.411 100.93 112.014 100.7C110.652 99.7225 110.198 98.5724 110.198 94.8348V84.1969C110.198 79.3092 109.8 75.4565 105.657 73.8465C102.138 72.5239 96.8602 72.4664 92.4333 76.7216C91.1847 74.594 89.6523 74.019 88.0064 73.4439C84.4876 72.1789 79.1527 73.8465 75.0096 77.1816V74.0765C75.0096 73.0989 74.6691 72.8689 73.6475 73.1564L62.5803 77.0091C62.5803 77.0091 62.1263 77.1241 62.0128 77.4691C61.956 77.6991 62.1263 77.9291 62.3533 78.1016C62.8073 78.3316 63.3181 78.5616 63.6586 78.7917C65.0775 79.7692 65.5316 81.0342 65.5316 84.6569Z" fill="white"/>
<path d="M120.909 87.417H132.6C135.665 87.417 137.651 87.532 138.105 87.0145C138.616 86.267 137.708 81.9543 137.368 80.8617C136.062 76.7791 133.508 74.709 129.762 73.6165C126.3 72.5814 120.625 72.8114 116.822 76.0315C112.395 79.7692 111.09 86.497 111.431 90.3496C111.771 94.3748 113.871 99.205 118.184 101.62C121.76 103.633 127.038 103.805 130.67 101.965C135.324 99.665 137.708 95.0648 138.219 91.2122C138.219 91.2122 138.276 90.9246 138.049 90.8096C137.935 90.7521 137.595 90.9246 137.595 90.9246C135.949 93.1672 135.211 94.2598 132.941 95.4673C130.614 96.6174 126.641 96.3299 124.711 95.1798C121.76 93.5122 121.022 89.9471 120.909 87.417ZM127.152 84.3119C127.152 84.3119 122.328 84.3119 121.022 84.3119C120.795 82.2993 120.625 78.4466 123.463 76.6066C124.427 75.974 125.79 75.8015 126.925 76.4341C128.854 77.4691 129.081 79.5967 129.081 81.3793C129.081 82.0118 129.081 82.4718 128.968 82.8743C128.741 83.6219 128.06 84.3119 127.152 84.3119Z" fill="white"/>
<path d="M148.957 59.1834C148.957 58.2058 148.73 57.8033 147.595 58.2633L136.528 62.116C136.528 62.116 136.074 62.1735 135.96 62.5185C135.903 62.806 136.074 63.036 136.301 63.151C136.755 63.381 137.266 63.6111 137.606 63.8986C139.025 64.8761 139.479 66.0262 139.479 69.7638V94.8348C139.479 98.5724 139.025 99.7225 137.606 100.7C137.266 100.93 136.755 101.218 136.301 101.448C136.074 101.563 135.903 101.85 135.96 102.138C136.074 102.483 136.528 102.483 136.528 102.483H151.908C151.908 102.483 152.419 102.483 152.533 102.138C152.589 101.85 152.419 101.563 152.192 101.448C151.681 101.218 151.227 100.93 150.83 100.7C149.468 99.7225 148.957 98.5724 148.957 94.8348V59.1834Z" fill="white"/>
<path d="M163.291 73.1564C161.816 73.4439 159.432 74.0765 157.672 75.054C152.792 77.7566 150.578 82.5293 150.294 86.842C149.954 90.9821 150.975 96.7324 155.686 100.413C159.489 103.403 165.788 104.035 170.102 102.54C175.21 100.758 178.388 96.8474 179.693 92.0172C180.658 87.992 180.204 81.7243 176.458 77.5841C172.769 73.4439 166.186 72.6964 163.291 73.1564ZM161.191 95.5823C160.737 93.1672 158.978 77.9291 164.256 76.3191C165.221 76.0315 166.356 76.2041 167.264 76.9516C170.329 79.4817 169.931 89.3146 169.818 91.8447C169.704 93.3397 169.648 98.1124 167.094 99.78C166.186 100.355 164.937 100.528 163.972 100.125C162.27 99.3775 161.645 97.5949 161.191 95.5823Z" fill="white"/>
<path d="M199.1 94.8348C199.1 98.5724 199.157 99.7225 197.794 100.7C197.397 100.93 196.943 101.218 196.432 101.448C196.205 101.563 196.035 101.735 196.092 101.965C196.149 102.368 196.716 102.483 196.716 102.483H211.529C211.529 102.483 212.04 102.483 212.153 102.138C212.21 101.85 212.04 101.563 211.813 101.448C211.302 101.218 210.791 100.93 210.451 100.7C209.089 99.7225 208.578 98.5724 208.578 94.8348V82.5868C208.578 79.8842 208.124 76.0891 204.719 74.134C200.916 71.9489 195.978 73.3289 190.814 76.7791V74.0765C190.814 73.0989 190.473 72.8689 189.452 73.1564L178.384 77.0091C178.384 77.0091 177.93 77.1241 177.817 77.4691C177.76 77.6991 177.93 77.9291 178.157 78.1016C178.611 78.3316 179.122 78.5616 179.463 78.7917C180.882 79.7692 181.336 81.0342 181.336 84.6569V94.8348C181.336 98.5724 180.882 99.7225 179.463 100.7C179.122 100.93 178.611 101.218 178.157 101.448C177.93 101.563 177.76 101.85 177.817 102.138C177.93 102.483 178.384 102.483 178.384 102.483H193.254C193.254 102.483 193.708 102.483 193.878 102.138C193.935 101.85 193.708 101.563 193.481 101.448C193.027 101.218 192.516 100.93 192.176 100.7C190.757 99.7225 190.814 98.6874 190.814 94.8348V87.1295C190.814 83.8519 190.643 80.8042 192.914 79.2517C193.935 78.5041 196.035 78.6192 197 79.1942C199.384 80.6317 199.1 83.2768 199.1 87.0145V94.8348Z" fill="white"/>
</svg>
