<svg width="24" height="24" viewBox="0 0 24 24" fill="none" xmlns="http://www.w3.org/2000/svg">
<path fill-rule="evenodd" clip-rule="evenodd" d="M7 3C5.89543 3 5 3.89543 5 5V19C5 20.1046 5.89543 21 7 21H17C18.1046 21 19 20.1046 19 19V5C19 3.89543 18.1046 3 17 3H7ZM7 6C7 5.44772 7.44772 5 8 5H13C13.5523 5 14 5.44772 14 6C14 6.55228 13.5523 7 13 7H8C7.44772 7 7 6.55228 7 6ZM7 10C7 9.44772 7.44772 9 8 9H16C16.5523 9 17 9.44771 17 10V18C17 18.5523 16.5523 19 16 19H8C7.44772 19 7 18.5523 7 18V10Z" />
</svg>
